<?xml version="1.0" encoding="utf-8"?>
<!-- Generator: Adobe Illustrator 26.0.3, SVG Export Plug-In . SVG Version: 6.00 Build 0)  -->
<svg version="1.0" id="Layer_1" xmlns="http://www.w3.org/2000/svg" xmlns:xlink="http://www.w3.org/1999/xlink" x="0px" y="0px"
	 viewBox="0 0 246.9 183.5" style="enable-background:new 0 0 246.9 183.5;" xml:space="preserve">
<style type="text/css">
	.st0{fill:#7A213F;}
</style>
<path class="st0" d="M36,74.2c0-2.2-0.4-2.7-2.4-2.7h-1.9V83H34c1.9,0,2.1-0.5,2.1-2.7L36,74.2L36,74.2z M33.6,67
	c1.9,0,2.4-0.4,2.4-3v-6.3c0-1.9-0.4-2.7-2.2-2.7c-0.7,0-1.4,0-2.1,0.2V67H33.6z M24.9,51.2c3-0.4,6.1-0.6,9.1-0.7c4.1,0,9,0.7,9,6
	v7.4c0,2.7-1,4-2.5,4.5l0,0c1.7,0.2,2.5,2.1,2.5,4.4v9.6c0,5-5.4,5-8.9,5h-9.3V51.2z"/>
<path class="st0" d="M45.4,60.4l6-0.6l0.5,2.1c1.6-1,3.4-1.6,5.3-1.8c0,0-0.4,5.4-0.5,5.4c-1.5,0-2.9,0.1-4.4,0.2v21.9h-6.9V60.4z"
	/>
<path class="st0" d="M68.6,66.8c0-1.9-0.7-2.5-1.6-2.5c-0.9,0-1.7,0.6-1.7,2.5v14.3c0,1.9,0.7,2.6,1.7,2.6c1,0,1.6-0.6,1.6-2.6
	L68.6,66.8L68.6,66.8z M58.3,65.8c0-5.3,4.5-6,8.6-6s8.6,0.6,8.6,6v16.5c0,5.3-4.5,5.9-8.6,5.9c-4.1,0-8.6-0.6-8.6-5.9V65.8z"/>
<path class="st0" d="M88.3,66.8c0-1.9-0.7-2.5-1.6-2.5S85,64.8,85,66.8v14.3c0,1.9,0.7,2.6,1.7,2.6c1,0,1.6-0.6,1.6-2.6L88.3,66.8
	L88.3,66.8z M78,65.8c0-5.3,4.5-6,8.6-6c4.1,0,8.6,0.6,8.6,6v16.5c0,5.3-4.5,5.9-8.6,5.9S78,87.5,78,82.2C78,82.2,78,65.8,78,65.8z"
	/>
<path class="st0" d="M104.8,72.6l3.6-12.2h7.2l-4.1,12.4l4.7,14.7h-7.6L104.8,72.6z M97.8,52.5l6.9-2v37h-7L97.8,52.5L97.8,52.5z"/>
<polygon class="st0" points="117.7,52.6 124.7,50.5 124.7,87.5 117.7,87.5 "/>
<path class="st0" d="M147.8,60.4l6-0.6l0.4,1.8c1.8-1.2,3.9-1.8,6-1.7c3.8,0,4.6,1.8,4.6,7.5v20.2h-7V66.3c0-1.3-0.2-1.9-1.2-1.9
	c-0.7,0.1-1.4,0.2-2,0.5v22.6h-6.9L147.8,60.4L147.8,60.4z"/>
<path class="st0" d="M113.9,95.2c0-5.3,4.3-6,8.3-6c3.8,0,8.2,0.7,8.2,5.6v5.1l-6.4,0.4v-4.4c0-1.7-0.6-2.4-1.8-2.4
	s-1.8,0.7-1.8,2.4v21.9c0,2,0.4,2.6,1.8,2.6s1.8-0.6,1.8-2.6v-4.3l6.5-0.2v6c0,4.6-4.9,5.2-8.3,5.2c-3.9,0-8.2-0.5-8.2-5.2V95.2z"/>
<path class="st0" d="M142,104.4c0-1.8-0.6-2.4-1.5-2.4c-0.8,0-1.6,0.6-1.6,2.4v13.4c0,1.8,0.6,2.4,1.6,2.4s1.5-0.6,1.5-2.4
	L142,104.4L142,104.4z M132.5,103.4c0-5,4.2-5.6,8-5.6s8,0.6,8,5.6v15.4c0,5-4.2,5.5-8,5.5s-8-0.6-8-5.5V103.4L132.5,103.4z"/>
<polygon class="st0" points="151.1,91.1 157.6,89.2 157.6,123.7 151.1,123.7 "/>
<polygon class="st0" points="160.1,91.1 166.6,89.2 166.6,123.7 160.1,123.7 "/>
<path class="st0" d="M178.7,108.8v-4.4c0-1.8-0.6-2.4-1.6-2.4s-1.4,0.6-1.4,2.4v4.4H178.7z M169.2,103.4c0-4.7,4.1-5.5,8-5.5
	s8,0.6,8,5.6v9.7h-9.4v4.8c0,1.8,0.6,2.4,1.4,2.4s1.6-0.6,1.6-2.4v-2.2l6.4-0.4v3.6c0,5-4.1,5.5-8,5.5s-7.9-0.6-7.9-5.5L169.2,103.4
	L169.2,103.4z"/>
<path class="st0" d="M194.5,124.8c-0.3,0.7-0.5,1.4-0.4,2.1c0,1.5,0.6,2,1.6,2s1.5-0.4,1.5-2c0-1.1-0.4-2.1-1.9-2.1L194.5,124.8
	L194.5,124.8L194.5,124.8z M197.1,104.4c0-1.8-0.7-2.4-1.5-2.4s-1.6,0.6-1.6,2.4v6.8c0,1.8,0.6,2.4,1.6,2.4s1.5-0.6,1.5-2.4
	L197.1,104.4L197.1,104.4z M189,123.9c-1.4-0.6-2.4-2-2.3-3.6c-0.1-1.7,0.9-3.2,2.5-3.9c-1.1-1-1.6-2.4-1.6-3.9v-8.7
	c0-5.1,3.7-6,7.6-6h10.6v4.2l-2.4-0.1c0.1,0.5,0.1,1,0.1,1.6v9.1c0,4.6-4.6,5.2-8.1,5.2c-1.1,0-2.2,0-3.2-0.2
	c-0.4,0.4-0.7,0.9-0.7,1.4c0,1.5,1.2,1.6,3.9,1.6c3.8,0,8.1,0.6,8.1,5.5v1.7c0,4.6-4.6,5.2-8.1,5.2c-3.9,0-7.9-0.6-7.9-5.2
	C187.4,126.3,187.9,124.9,189,123.9"/>
<path class="st0" d="M215.5,108.8v-4.4c0-1.8-0.6-2.4-1.6-2.4s-1.4,0.6-1.4,2.4v4.4H215.5z M206,103.4c0-4.7,4.1-5.5,8-5.5
	s8,0.6,8,5.6v9.7h-9.5v4.8c0,1.8,0.6,2.4,1.4,2.4s1.6-0.6,1.6-2.4v-2.2l6.4-0.4v3.6c0,5-4.1,5.5-8,5.5s-7.9-0.6-7.9-5.5L206,103.4
	L206,103.4z"/>
<path class="st0" d="M145,91.4V59.7h-7v22.8c-0.6,0.3-1.3,0.5-2,0.6c-1,0-1.2-0.6-1.2-2V59.7h-7v20.4c0,5.8,0.9,7.6,4.7,7.6
	c2.1,0.1,4.2-0.6,6-1.7v4.6c-0.1,1.5-0.6,2-1.8,2h-0.2v4.2h0.2C140,96.8,145,96.1,145,91.4"/>
</svg>
